<svg width="14" height="14" viewBox="0 0 14 14" fill="none" xmlns="http://www.w3.org/2000/svg">
<path d="M11.3636 2.09082H2.63636C1.73262 2.09082 1 2.82345 1 3.72718V11.3635C1 12.2673 1.73262 12.9999 2.63636 12.9999H11.3636C12.2674 12.9999 13 12.2673 13 11.3635V3.72718C13 2.82345 12.2674 2.09082 11.3636 2.09082Z" stroke="#737373" stroke-linecap="round" stroke-linejoin="round"/>
<path d="M1 5.36353H13" stroke="#737373" stroke-linecap="round" stroke-linejoin="round"/>
<path d="M7 3.18182V1" stroke="#737373" stroke-linecap="round" stroke-linejoin="round"/>
<path d="M3.72656 3.18182V1" stroke="#737373" stroke-linecap="round" stroke-linejoin="round"/>
<path d="M10.2734 3.18182V1" stroke="#737373" stroke-linecap="round" stroke-linejoin="round"/>
<path d="M3.17969 8.09082H4.2706" stroke="#737373" stroke-linecap="round" stroke-linejoin="round"/>
<path d="M6.45312 8.09082H7.54403" stroke="#737373" stroke-linecap="round" stroke-linejoin="round"/>
<path d="M9.72656 8.09082H10.8175" stroke="#737373" stroke-linecap="round" stroke-linejoin="round"/>
<path d="M3.17969 10.2727H4.2706" stroke="#737373" stroke-linecap="round" stroke-linejoin="round"/>
<path d="M6.45312 10.2727H7.54403" stroke="#737373" stroke-linecap="round" stroke-linejoin="round"/>
<path d="M9.72656 10.2727H10.8175" stroke="#737373" stroke-linecap="round" stroke-linejoin="round"/>
</svg>
