<svg width="25" height="25" viewBox="0 0 25 25" fill="none" xmlns="http://www.w3.org/2000/svg">
<circle cx="12.5" cy="12.5" r="12.5" fill="url(#paint0_linear_92_2387)"/>
<path d="M17.6809 8.70213H15.4468V8.17021C15.4468 7.85985 15.3235 7.5622 15.1041 7.34275C14.8846 7.12329 14.587 7 14.2766 7H11.7234C11.413 7 11.1154 7.12329 10.8959 7.34275C10.6765 7.5622 10.5532 7.85985 10.5532 8.17021V8.70213H8.31915C8.23451 8.70213 8.15333 8.73575 8.09348 8.7956C8.03362 8.85546 8 8.93663 8 9.02128C8 9.10592 8.03362 9.1871 8.09348 9.24695C8.15333 9.3068 8.23451 9.34043 8.31915 9.34043H8.54468L9.21277 17.6255C9.23819 17.9179 9.37179 18.1903 9.58742 18.3894C9.80306 18.5886 10.0852 18.7001 10.3787 18.7021H15.6213C15.9148 18.7001 16.1969 18.5886 16.4126 18.3894C16.6282 18.1903 16.7618 17.9179 16.7872 17.6255L17.4553 9.34043H17.6809C17.7655 9.34043 17.8467 9.3068 17.9065 9.24695C17.9664 9.1871 18 9.10592 18 9.02128C18 8.93663 17.9664 8.85546 17.9065 8.7956C17.8467 8.73575 17.7655 8.70213 17.6809 8.70213ZM11.1915 8.17021C11.1915 8.02914 11.2475 7.89385 11.3473 7.79409C11.447 7.69434 11.5823 7.6383 11.7234 7.6383H14.2766C14.4177 7.6383 14.553 7.69434 14.6527 7.79409C14.7525 7.89385 14.8085 8.02914 14.8085 8.17021V8.70213H11.1915V8.17021ZM16.1489 17.5745C16.1373 17.7077 16.0762 17.8317 15.9778 17.9222C15.8794 18.0128 15.7507 18.0633 15.617 18.0638H10.3787C10.2457 18.0622 10.1181 18.0113 10.0206 17.9208C9.92309 17.8304 9.86266 17.707 9.85106 17.5745L9.17021 9.34043H16.8298L16.1489 17.5745ZM15.0213 11.5745V15.8298C15.0213 15.9144 14.9877 15.9956 14.9278 16.0555C14.8679 16.1153 14.7868 16.1489 14.7021 16.1489C14.6175 16.1489 14.5363 16.1153 14.4765 16.0555C14.4166 15.9956 14.383 15.9144 14.383 15.8298V11.5745C14.383 11.4898 14.4166 11.4086 14.4765 11.3488C14.5363 11.2889 14.6175 11.2553 14.7021 11.2553C14.7868 11.2553 14.8679 11.2889 14.9278 11.3488C14.9877 11.4086 15.0213 11.4898 15.0213 11.5745ZM13.3191 11.5745V15.8298C13.3191 15.9144 13.2855 15.9956 13.2257 16.0555C13.1658 16.1153 13.0846 16.1489 13 16.1489C12.9154 16.1489 12.8342 16.1153 12.7743 16.0555C12.7145 15.9956 12.6809 15.9144 12.6809 15.8298V11.5745C12.6809 11.4898 12.7145 11.4086 12.7743 11.3488C12.8342 11.2889 12.9154 11.2553 13 11.2553C13.0846 11.2553 13.1658 11.2889 13.2257 11.3488C13.2855 11.4086 13.3191 11.4898 13.3191 11.5745ZM11.617 11.5745V15.8298C11.617 15.9144 11.5834 15.9956 11.5235 16.0555C11.4637 16.1153 11.3825 16.1489 11.2979 16.1489C11.2132 16.1489 11.1321 16.1153 11.0722 16.0555C11.0123 15.9956 10.9787 15.9144 10.9787 15.8298V11.5745C10.9787 11.4898 11.0123 11.4086 11.0722 11.3488C11.1321 11.2889 11.2132 11.2553 11.2979 11.2553C11.3825 11.2553 11.4637 11.2889 11.5235 11.3488C11.5834 11.4086 11.617 11.4898 11.617 11.5745Z" fill="white"/>
<defs>
<linearGradient id="paint0_linear_92_2387" x1="6.5" y1="2" x2="21.5" y2="22.5" gradientUnits="userSpaceOnUse">
<stop stop-color="#00C4F9"/>
<stop offset="1" stop-color="#0084DC"/>
</linearGradient>
</defs>
</svg>
